<mxfile host="app.diagrams.net" modified="2023-11-19T09:30:53.285Z" agent="Mozilla/5.0 (X11; Linux x86_64) AppleWebKit/537.36 (KHTML, like Gecko) Chrome/119.0.0.0 Safari/537.36 Edg/119.0.0.0" etag="UUBOgQ91NaKwDSKXCMr6" version="22.1.3" type="device" pages="2">
  <diagram name="Page-1" id="lHNAiJ2kCy0nkoicNK4u">
    <mxGraphModel dx="1426" dy="798" grid="1" gridSize="10" guides="1" tooltips="1" connect="1" arrows="1" fold="1" page="1" pageScale="1" pageWidth="850" pageHeight="1100" math="0" shadow="0">
      <root>
        <mxCell id="0" />
        <mxCell id="1" parent="0" />
        <mxCell id="b24GIxl1xvLwUx3QiXb9-1" value="" style="rounded=0;whiteSpace=wrap;html=1;" parent="1" vertex="1">
          <mxGeometry x="270" y="290" width="840" height="500" as="geometry" />
        </mxCell>
        <mxCell id="b24GIxl1xvLwUx3QiXb9-2" value="&lt;font style=&quot;font-size: 48px;&quot;&gt;Table&lt;/font&gt;" style="rounded=1;whiteSpace=wrap;html=1;" parent="1" vertex="1">
          <mxGeometry x="320" y="390" width="530" height="380" as="geometry" />
        </mxCell>
        <mxCell id="b24GIxl1xvLwUx3QiXb9-3" value="Table name" style="rounded=1;whiteSpace=wrap;html=1;" parent="1" vertex="1">
          <mxGeometry x="310" y="320" width="130" height="40" as="geometry" />
        </mxCell>
        <mxCell id="b24GIxl1xvLwUx3QiXb9-6" value="" style="rounded=1;whiteSpace=wrap;html=1;" parent="1" vertex="1">
          <mxGeometry x="900" y="390" width="190" height="380" as="geometry" />
        </mxCell>
        <mxCell id="b24GIxl1xvLwUx3QiXb9-7" value="tools" style="rounded=1;whiteSpace=wrap;html=1;" parent="1" vertex="1">
          <mxGeometry x="930" y="320" width="130" height="40" as="geometry" />
        </mxCell>
        <mxCell id="b24GIxl1xvLwUx3QiXb9-9" value="btn Run Py" style="rounded=1;whiteSpace=wrap;html=1;" parent="1" vertex="1">
          <mxGeometry x="525" y="330" width="125" height="30" as="geometry" />
        </mxCell>
        <mxCell id="VJPVGk9TJwXSNqG8LFW6-1" value="Run" style="rounded=1;whiteSpace=wrap;html=1;" parent="1" vertex="1">
          <mxGeometry x="965" y="740" width="60" height="20" as="geometry" />
        </mxCell>
        <mxCell id="xMa-kjiWpO1hYWSvm2oW-1" value="&lt;font style=&quot;font-size: 48px;&quot;&gt;PyTab&lt;/font&gt;" style="text;html=1;align=center;verticalAlign=middle;resizable=0;points=[];autosize=1;strokeColor=none;fillColor=none;" parent="1" vertex="1">
          <mxGeometry x="520" y="200" width="160" height="70" as="geometry" />
        </mxCell>
        <mxCell id="9mXs3I6j0-eO40pdKtZ--1" value="" style="rounded=1;whiteSpace=wrap;html=1;" parent="1" vertex="1">
          <mxGeometry x="915" y="440" width="160" height="20" as="geometry" />
        </mxCell>
        <mxCell id="9mXs3I6j0-eO40pdKtZ--2" value="" style="rounded=1;whiteSpace=wrap;html=1;" parent="1" vertex="1">
          <mxGeometry x="915" y="480" width="160" height="20" as="geometry" />
        </mxCell>
        <mxCell id="9mXs3I6j0-eO40pdKtZ--3" value="" style="rounded=1;whiteSpace=wrap;html=1;" parent="1" vertex="1">
          <mxGeometry x="915" y="530" width="160" height="20" as="geometry" />
        </mxCell>
        <mxCell id="9mXs3I6j0-eO40pdKtZ--4" value="" style="rounded=1;whiteSpace=wrap;html=1;" parent="1" vertex="1">
          <mxGeometry x="915" y="570" width="160" height="20" as="geometry" />
        </mxCell>
        <mxCell id="9mXs3I6j0-eO40pdKtZ--5" value="" style="rounded=1;whiteSpace=wrap;html=1;" parent="1" vertex="1">
          <mxGeometry x="915" y="610" width="160" height="20" as="geometry" />
        </mxCell>
        <mxCell id="9mXs3I6j0-eO40pdKtZ--6" value="Text" style="text;html=1;align=center;verticalAlign=middle;resizable=0;points=[];autosize=1;strokeColor=none;fillColor=none;" parent="1" vertex="1">
          <mxGeometry x="910" y="420" width="50" height="30" as="geometry" />
        </mxCell>
        <mxCell id="9mXs3I6j0-eO40pdKtZ--7" value="Text" style="text;html=1;align=center;verticalAlign=middle;resizable=0;points=[];autosize=1;strokeColor=none;fillColor=none;" parent="1" vertex="1">
          <mxGeometry x="910" y="460" width="50" height="30" as="geometry" />
        </mxCell>
      </root>
    </mxGraphModel>
  </diagram>
  <diagram id="4NCxD9WJN9-cR_sqp-nH" name="Page-2">
    <mxGraphModel dx="1426" dy="798" grid="1" gridSize="10" guides="1" tooltips="1" connect="1" arrows="1" fold="1" page="1" pageScale="1" pageWidth="850" pageHeight="1100" math="0" shadow="0">
      <root>
        <mxCell id="0" />
        <mxCell id="1" parent="0" />
        <mxCell id="-i8_I38-FZVHpe_nX2vC-1" value="" style="rounded=0;whiteSpace=wrap;html=1;" parent="1" vertex="1">
          <mxGeometry x="140" y="220" width="840" height="500" as="geometry" />
        </mxCell>
        <mxCell id="-i8_I38-FZVHpe_nX2vC-2" value="&lt;font style=&quot;font-size: 48px;&quot;&gt;Table&lt;/font&gt;" style="rounded=1;whiteSpace=wrap;html=1;" parent="1" vertex="1">
          <mxGeometry x="190" y="320" width="530" height="380" as="geometry" />
        </mxCell>
        <mxCell id="-i8_I38-FZVHpe_nX2vC-3" value="Table name" style="rounded=1;whiteSpace=wrap;html=1;" parent="1" vertex="1">
          <mxGeometry x="180" y="250" width="130" height="40" as="geometry" />
        </mxCell>
        <mxCell id="-i8_I38-FZVHpe_nX2vC-4" value="" style="rounded=1;whiteSpace=wrap;html=1;" parent="1" vertex="1">
          <mxGeometry x="760" y="310" width="190" height="380" as="geometry" />
        </mxCell>
        <mxCell id="-i8_I38-FZVHpe_nX2vC-5" value="tools" style="rounded=1;whiteSpace=wrap;html=1;" parent="1" vertex="1">
          <mxGeometry x="800" y="250" width="130" height="40" as="geometry" />
        </mxCell>
        <mxCell id="9Dv9YFHQ_6-psClDnPJ1-1" value="" style="edgeStyle=orthogonalEdgeStyle;rounded=0;orthogonalLoop=1;jettySize=auto;html=1;" parent="1" source="-i8_I38-FZVHpe_nX2vC-6" target="-i8_I38-FZVHpe_nX2vC-2" edge="1">
          <mxGeometry relative="1" as="geometry" />
        </mxCell>
        <mxCell id="g-l_edM3X0khjzK3L-bK-1" value="" style="edgeStyle=orthogonalEdgeStyle;rounded=0;orthogonalLoop=1;jettySize=auto;html=1;" parent="1" source="-i8_I38-FZVHpe_nX2vC-6" target="9Dv9YFHQ_6-psClDnPJ1-3" edge="1">
          <mxGeometry relative="1" as="geometry" />
        </mxCell>
        <mxCell id="-i8_I38-FZVHpe_nX2vC-6" value="btn Run Py" style="rounded=1;whiteSpace=wrap;html=1;" parent="1" vertex="1">
          <mxGeometry x="395" y="260" width="120" height="20" as="geometry" />
        </mxCell>
        <mxCell id="9Dv9YFHQ_6-psClDnPJ1-2" value="" style="rounded=1;whiteSpace=wrap;html=1;" parent="1" vertex="1">
          <mxGeometry x="270" y="300" width="370" height="280" as="geometry" />
        </mxCell>
        <mxCell id="9Dv9YFHQ_6-psClDnPJ1-3" value="some text" style="rounded=1;whiteSpace=wrap;html=1;" parent="1" vertex="1">
          <mxGeometry x="300" y="330" width="300" height="60" as="geometry" />
        </mxCell>
        <mxCell id="9Dv9YFHQ_6-psClDnPJ1-4" value="code with&amp;nbsp;Consolas&lt;br&gt;&lt;span style=&quot;color: rgb(68, 68, 68); font-family: Roboto, Helvetica, sans-serif; font-size: 13px; text-align: left; background-color: rgb(255, 255, 255);&quot;&gt;font&lt;/span&gt;" style="rounded=1;whiteSpace=wrap;html=1;" parent="1" vertex="1">
          <mxGeometry x="300" y="410" width="300" height="110" as="geometry" />
        </mxCell>
        <mxCell id="9Dv9YFHQ_6-psClDnPJ1-5" value="Run" style="ellipse;whiteSpace=wrap;html=1;" parent="1" vertex="1">
          <mxGeometry x="515" y="530" width="90" height="40" as="geometry" />
        </mxCell>
      </root>
    </mxGraphModel>
  </diagram>
</mxfile>
